<svg width="111" height="137" viewBox="0 0 111 137" fill="none" xmlns="http://www.w3.org/2000/svg">
<path d="M3.52143 45.4543C6.2944 37.8772 10.713 31.0789 16.3531 25.4933C21.8665 20.0213 28.5517 15.7109 36.0024 12.9515C36.0024 13.8942 36.0739 14.8382 36.2225 15.7881C29.4435 18.4177 23.3522 22.4055 18.2951 27.4236C13.299 32.3776 9.30974 38.3296 6.65778 44.9525C5.9257 45.0889 5.19967 45.2144 4.46759 45.3237C4.17041 45.3669 3.84601 45.4107 3.52143 45.4543ZM33.2233 114.073C26.8845 111.323 21.173 107.428 16.3531 102.644C6.3937 92.7747 0.236328 79.1365 0.236328 64.068C0.236328 60.4569 0.588311 56.927 1.26523 53.5175C2.09055 54.0029 2.99328 54.4229 3.82929 54.745C3.27355 57.7676 2.98759 60.8877 2.98759 64.068C2.98759 78.3778 8.83657 91.3345 18.2951 100.718C22.7523 105.137 28.0184 108.765 33.8455 111.361C33.8506 111.863 33.8175 112.442 33.6913 112.846L33.2233 114.073ZM109.84 57.1236C110.132 59.3987 110.285 61.717 110.285 64.068C110.285 79.1365 104.123 92.7747 94.1682 102.644C89.3428 107.428 83.6315 111.323 77.2926 114.073L76.8248 112.846C76.6985 112.442 76.665 111.863 76.6707 111.361C82.5033 108.765 87.7638 105.137 92.2205 100.718C101.68 91.3345 107.534 78.3778 107.534 64.068C107.534 61.559 107.352 59.093 107.006 56.6818L109.84 57.1236ZM55.2607 9.51367C70.453 9.51367 84.2091 15.6189 94.1682 25.4933C100.81 32.0829 105.767 40.3477 108.327 49.6007C107.137 48.8805 106.026 48.2915 104.903 47.8003C102.312 40.0309 97.9213 33.0765 92.2205 27.4236C82.762 18.0411 69.6935 12.2423 55.2607 12.2423C53.852 12.2423 52.4599 12.2964 51.0787 12.4059C51.0073 12.324 50.9358 12.2423 50.8587 12.1592C50.2098 11.4339 49.7695 10.6431 49.5159 9.80853C51.4036 9.61154 53.3182 9.51367 55.2607 9.51367Z" fill="black"/>
<path fill-rule="evenodd" clip-rule="evenodd" d="M10.9606 81.3349C10.8343 81.0292 10.7131 80.7183 10.5919 80.4076C11.0375 80.56 11.3955 80.7402 11.1532 81.0347C11.0594 81.144 10.9991 81.2476 10.9606 81.3349ZM94.4441 83.1295C94.2339 83.0753 94.0255 83.0422 93.833 83.0315C92.7158 82.9824 91.709 82.8843 91.2081 82.0932C90.702 81.3075 93.7832 81.6513 93.3543 81.1821C92.9635 80.7621 94.4003 80.6964 95.0541 80.1619C95.1694 80.2927 95.9136 80.151 95.6931 80.6367C95.4231 81.2039 94.5813 80.5818 94.8119 81.0621C95.0379 81.5421 94.8731 81.1876 94.3887 81.5583C93.91 81.9351 95.1591 81.4711 94.9051 82.0551C94.8672 82.1368 95.1473 82.5024 95.4173 82.4475C95.858 82.3603 95.9456 82.9112 94.7359 82.966C94.4441 82.9824 94.4441 83.037 94.4441 83.1295ZM99.2535 82.0713C99.1544 82.2951 99.0609 82.5186 98.9559 82.7477C98.823 82.666 98.7136 82.5622 98.626 82.4206C98.4773 82.1804 98.8684 82.1094 99.2535 82.0713ZM74.1837 28.0892C74.0738 27.7242 73.6444 26.6926 72.3352 26.3497C70.7335 25.9353 69.9746 27.021 69.9746 27.021C69.9746 27.021 68.3403 26.6006 67.19 27.1902C66.4419 27.5653 66.1997 27.8979 66.1225 28.0892H74.1837ZM25.4818 33.0984C26.0759 32.1208 27.9026 31.74 28.7612 32.7322C28.7886 31.6684 30.599 31.0351 31.6277 31.7225C31.8753 29.8358 36.8 29.061 36.9486 33.0984H25.4818ZM11.929 43.7301C12.9581 41.5369 14.1466 39.443 15.4837 37.4454H34.4285C34.1478 37.0208 33.5864 36.3976 32.5963 36.2241C31.0448 35.9511 30.4834 36.5567 30.4834 36.5567C30.4834 36.5567 30.2082 35.7104 29.113 35.4331C28.0184 35.1545 27.4789 35.8694 27.4789 35.8694C27.4347 33.4574 23.8583 33.2444 23.0606 34.1782C22.725 32.5689 21.9158 31.4496 20.9088 30.7623C25.2778 26.2782 30.5326 22.6449 36.3928 20.1468C36.9815 21.9795 37.8454 23.7583 38.9791 25.4173C39.2706 25.8477 39.5678 26.2723 39.8376 26.7101C40.2447 27.3697 40.7289 27.9636 41.2734 28.5093C41.2019 28.7122 41.1416 28.9134 41.0919 29.1266C40.129 29.8197 39.2596 30.8339 38.4837 32.0071C36.9379 33.9551 35.7383 36.491 34.863 38.6346C32.2662 38.9293 29.6027 39.7918 27.3415 40.7855C25.1517 41.7398 23.6934 41.941 21.3768 42.0886C18.3063 42.2856 15.7204 42.6722 12.7326 43.5068C12.4684 43.5826 12.1986 43.66 11.929 43.7301ZM29.8395 85.492C29.8283 85.421 29.7513 85.3446 29.5536 85.2462C28.651 84.7989 29.2838 84.2479 28.2109 84.0736C27.457 83.9481 29.394 83.1025 28.8325 83.0096C28.2658 82.9224 29.1681 82.382 28.5245 82.3494C26.3178 82.2241 27.3141 80.0638 26.9121 79.5891C26.5986 79.2127 26.7528 77.0031 26.4941 77.4012C26.2023 77.8486 26.1585 76.3378 26.0318 75.5959C25.7179 73.7408 25.8118 77.6688 25.5972 77.3743C25.3164 76.9812 25.5972 79.1853 25.3058 79.562C25.0137 79.9384 25.3002 80.4564 25.0415 80.9038C24.783 81.3511 24.7497 82.4039 24.1062 82.437C23.4622 82.475 23.9078 83.2281 23.1652 83.5933C22.4278 83.9588 24.6781 83.7404 24.0292 84.0954C23.3795 84.4556 23.6605 85.0282 22.835 85.3117C22.0096 85.6011 23.4733 85.9993 23.2478 86.3593C23.0222 86.714 24.4194 86.3593 24.0783 87.0359C23.7427 87.7178 22.6367 86.9759 22.9394 87.5542C23.1869 88.0123 23.0882 87.832 22.7195 87.9742C22.103 87.4339 21.5087 86.6428 22.0593 86.5504C22.7412 86.4299 20.5732 85.3279 20.1606 84.4387C19.7483 83.5495 21.8114 85.001 21.6466 84.368C21.4813 83.7354 22.4223 84.4606 23.1652 84.4606C23.9078 84.4606 22.7853 83.7136 22.2241 83.195C21.6628 82.6822 23.0166 82.6603 21.7895 82.3332C20.5625 82.0001 19.3461 80.5984 20.8375 81.0673C22.3285 81.5365 20.6396 79.7798 21.9655 79.6108C23.2917 79.4472 21.685 78.5799 20.5732 78.5361C19.4619 78.487 18.466 78.3945 17.965 77.6469C17.4646 76.8939 20.5296 77.2215 20.1001 76.7796C19.6712 76.3323 21.4701 76.3106 21.9655 75.6283C22.4664 74.9521 19.8801 75.6066 20.2486 74.859C20.6117 74.1065 18.5759 75.6776 18.0974 74.7884C17.6131 73.8992 19.8801 74.1339 19.5611 73.6646C19.2416 73.1954 21.1183 72.6332 20.0287 72.2569C18.9334 71.8805 19.5942 71.5095 18.719 71.0403C17.8495 70.5714 19.9627 69.7037 19.2306 69.5837C18.4934 69.4695 19.6819 68.7655 18.8345 68.7164C17.993 68.6726 17.3653 68.2253 17.0023 67.6418C16.6393 67.0578 17.1894 65.6013 16.7822 65.1103C16.3751 64.6193 16.6169 61.7389 16.2706 62.2517C15.8741 62.8352 15.8467 60.8659 15.6981 59.9005C15.3184 57.4726 15.3681 62.601 15.0983 62.2192C14.7353 61.7006 15.0711 64.5868 14.6801 65.0777C14.2897 65.5687 14.7684 66.4362 14.4214 67.0197C14.0808 67.6089 13.9099 68.7874 13.0683 68.8364C12.226 68.88 12.793 69.8727 11.8191 70.3475C10.845 70.8274 13.7943 70.5384 12.936 71.0022C12.0831 71.4712 12.4406 72.2188 11.3569 72.5896C10.2782 72.9664 12.1821 73.4899 11.8797 73.9591C11.577 74.4227 13.409 73.9591 12.9581 74.8484C12.507 75.7376 11.0706 74.7665 11.4616 75.5192C11.8465 76.2668 11.5605 75.7158 10.7405 76.2993C9.92621 76.8832 12.05 76.1575 11.6206 77.0741C11.5605 77.2053 12.0335 77.7724 12.4903 77.6905C13.2385 77.5542 13.3927 78.4164 11.3349 78.5032C10.2949 78.5468 11.4007 78.8582 10.2451 79.4529C8.47362 74.5102 7.51074 69.1912 7.51074 63.6426C7.51074 61.5915 7.6426 59.5729 7.89564 57.5929C10.669 57.9529 13.4971 57.7071 16.2322 56.9546C16.6833 56.8346 17.1397 56.7037 17.602 56.6001C19.7869 58.5476 22.5871 58.3185 25.3604 57.7781C27.1545 57.4293 28.7667 57.4507 30.4942 57.6091C30.4172 57.7238 30.3405 57.8381 30.2634 57.9418C28.0899 60.8059 27.0717 63.7574 27.6275 67.3361C28.178 70.8931 30.0378 74.1008 30.4942 77.7014C30.8465 80.4345 30.4337 82.895 29.8395 85.492ZM28.9866 89.1469C28.9811 89.1307 28.9701 89.1143 28.9482 89.0869C28.3757 88.5034 28.0127 87.8651 28.9594 87.985C29.5368 88.0616 28.7555 87.0795 28.7722 87.3797C28.7831 87.6523 28.2602 87.0739 28.0127 86.9921C27.4347 86.8067 29.3715 86.4903 29.1242 86.1303C28.9482 85.8739 29.7071 85.7648 29.8228 85.5519C29.7296 85.9557 29.6358 86.3648 29.5368 86.7737C29.3496 87.5377 29.1626 88.3288 28.9866 89.1469ZM28.8544 89.7471C28.475 89.6542 28.1501 89.4907 27.9414 89.1798C27.5945 88.6726 28.9041 89.2506 28.9811 89.1581C28.9427 89.3543 28.8985 89.5506 28.8544 89.7471ZM102.659 57.9148C102.89 59.7912 103.005 61.7063 103.005 63.6426C103.005 69.5894 101.899 75.274 99.8854 80.5164C99.611 80.5818 98.9122 81.0128 98.7034 80.5929C98.4218 80.0256 99.7482 80.1781 99.5615 79.8784C99.3791 79.5782 100.475 79.2182 99.8357 78.978C99.1981 78.7379 99.5834 78.5032 99.0711 78.2036C98.559 77.9035 99.7978 77.3524 99.3688 77.2759C98.9398 77.1996 99.6329 76.7522 99.1367 76.7197C98.6422 76.6922 98.273 76.4084 98.0643 76.0321C97.8498 75.6609 98.1753 74.7336 97.9315 74.4172C97.6966 74.1065 97.8338 72.2624 97.6354 72.5952C97.4034 72.9664 97.3873 71.706 97.2939 71.0894C97.0736 69.5401 97.1071 72.8192 96.948 72.5734C96.7321 72.2407 96.9305 74.0848 96.6999 74.3955C96.4681 74.7119 96.7554 75.2628 96.5512 75.6395C96.3483 76.0102 96.2492 76.7686 95.7531 76.7958C95.2641 76.8232 95.594 77.4562 95.0219 77.7612C94.4499 78.0669 96.1819 77.8817 95.6815 78.1819C95.1751 78.4815 95.3852 78.9563 94.7519 79.1965C94.4382 79.3108 94.5535 79.4579 94.7359 79.6053C94.1303 79.5782 93.2828 79.6327 93.5027 79.1634C93.8657 78.3726 91.819 80.0256 91.3405 79.0873C90.8563 78.1488 93.1342 78.3945 92.8149 77.9035C92.4902 77.4124 94.377 76.8177 93.2773 76.4248C92.182 76.0321 92.8427 75.634 91.9676 75.1428C91.0874 74.6519 93.2169 73.7353 92.4792 73.6153C91.7419 73.4899 92.9303 72.7478 92.083 72.6987C91.2358 72.65 90.6032 72.1859 90.2397 71.5698C89.871 70.9532 90.4269 69.4202 90.0196 68.9017C89.6069 68.3837 89.8493 65.356 89.5024 65.8959C89.1063 66.5123 89.0789 64.4337 88.9248 63.4193C88.5453 60.8659 88.5949 66.2671 88.325 65.8579C87.9564 65.3174 88.2977 68.3507 87.9013 68.8691C87.5108 69.3871 87.9949 70.2982 87.6482 70.9148C87.3014 71.5312 87.1254 72.7754 86.2837 72.8242C85.4361 72.8735 86.0086 73.9155 85.0235 74.4172C84.0442 74.919 87.0154 74.6138 86.1515 75.1048C85.2876 75.6011 85.6506 76.3814 84.5615 76.7796C83.4775 77.1722 85.392 77.7176 85.0842 78.2142C84.7815 78.7054 86.6247 78.2142 86.1734 79.1527C85.7169 80.0856 84.275 79.0654 84.666 79.8565C85.0564 80.6473 84.7647 80.0638 83.9449 80.6803C83.1196 81.2912 85.2546 80.5329 84.8256 81.4929C84.7647 81.6294 85.2434 82.2297 85.7002 82.1423C86.4542 81.9951 86.6083 82.9062 84.5391 82.9986C83.4221 83.0479 84.7647 83.4191 83.1748 84.1335C81.5793 84.848 84.9906 84.8699 84.3576 85.661C83.725 86.4467 84.6605 86.6485 83.439 86.9921C82.2226 87.3359 83.5819 87.3633 83.0319 87.9032C82.4813 88.4486 83.3066 88.4705 84.0661 88.5958C84.8308 88.7162 83.7689 89.3108 83.6205 89.9761C83.4775 90.6418 84.9906 89.2123 84.6055 90.1453C84.2202 91.0836 82.4923 90.5434 83.3123 91.4274C84.0935 92.2786 83.0481 92.7692 82.355 93.2221C82.0249 90.773 81.414 88.4705 80.8363 86.01C80.7096 85.4701 80.5885 84.9354 80.4783 84.3955C80.121 82.6334 79.8183 80.211 79.9447 78.4326C80.2311 74.5207 82.2998 71.1443 82.8888 67.3361C83.4059 64.0195 82.5639 61.2371 80.7096 58.5638C83.191 58.7549 85.6892 58.7223 88.1543 58.2799C91.9565 57.5929 95.9355 57.511 99.7861 57.7126C100.743 57.7619 101.702 57.8276 102.659 57.9148ZM55.2607 16.3062C65.6383 16.3062 75.2404 19.5893 83.0703 25.165C82.1404 25.9179 81.4083 27.053 81.0784 28.6129C80.2142 27.5988 76.3295 27.8337 76.2857 30.4515C76.2857 30.4515 75.7024 29.6781 74.5138 29.9772C73.3253 30.278 73.0226 31.1942 73.0226 31.1942C73.0226 31.1942 72.4117 30.5333 70.7335 30.8339C69.6551 31.025 69.0446 31.7007 68.7417 32.1587H90.9109C94.5973 36.262 97.574 41.0029 99.6548 46.1962C98.3839 45.9397 96.9962 45.7381 95.4013 45.5634C94.4499 45.4598 93.481 45.3505 92.5288 45.1925C92.4188 45.176 92.2921 45.1544 92.1601 45.1327C91.6264 44.3633 90.889 43.8615 89.8822 43.5009C88.6769 43.0764 87.3126 43.1084 86.047 43.1143C82.9324 43.1362 80.2473 42.9669 77.4466 41.4172C75.9335 40.5724 74.7176 39.3058 73.6609 37.9255C73.4024 37.5548 73.1548 37.1841 72.9182 36.8179C72.5552 36.2721 72.1973 35.728 71.8012 35.2361C71.0033 34.041 70.123 32.8796 68.6319 32.5148C68.1919 32.4112 67.768 32.3719 67.3662 32.4053C67.0747 31.7663 66.8106 31.1184 66.5683 30.4733C65.7869 28.4116 65.1982 26.7743 63.8668 25.1605C63.4871 24.5608 63.0358 23.9814 62.4578 23.3921C61.9518 22.8797 61.5172 22.3779 61.0768 21.8044C59.7893 20.1191 58.3753 18.9853 56.7133 17.7027C56.1083 17.2327 55.5303 16.7702 54.9748 16.3062C55.068 16.3062 55.1618 16.3062 55.2607 16.3062Z" fill="black"/>
<path fill-rule="evenodd" clip-rule="evenodd" d="M93.0682 108.138C93.0682 112.535 91.9731 115.153 89.6621 116.097C91.9731 117.041 93.0682 119.66 93.0682 124.057C93.0682 119.66 94.1683 117.041 96.4797 116.097C94.1683 115.153 93.0682 112.535 93.0682 108.138Z" fill="black"/>
<path fill-rule="evenodd" clip-rule="evenodd" d="M100.281 101.411C100.281 103.981 99.6093 105.514 98.1953 106.065C99.6093 106.621 100.281 108.148 100.281 110.724C100.281 108.148 100.952 106.621 102.36 106.065C100.952 105.514 100.281 103.981 100.281 101.411Z" fill="black"/>
<path fill-rule="evenodd" clip-rule="evenodd" d="M82.9068 115.92C82.9068 117.649 82.4558 118.68 81.5088 119.052C82.4558 119.422 82.9068 120.453 82.9068 122.183C82.9068 120.453 83.3577 119.422 84.3045 119.052C83.3577 118.68 82.9068 117.649 82.9068 115.92Z" fill="black"/>
<path d="M28.4145 43.6047C32.8221 41.6743 35.8703 41.5268 37.1688 41.5867C37.9171 39.4533 40.5036 32.3939 43.2769 31.3141C44.3716 30.8837 44.8339 31.2922 44.8339 31.2922C44.8339 31.2922 44.8558 30.9157 44.7955 30.5829C44.7017 29.9672 44.4928 29.3499 44.614 28.7881C44.7458 28.1506 45.0596 27.6806 45.6868 27.5274C45.5988 27.3699 45.5495 27.1948 45.5495 27.0094C45.5495 26.6885 45.6649 26.4156 45.9454 26.2186C44.8781 25.6466 43.7004 24.806 42.9413 23.573C42.666 23.131 42.3359 22.645 41.9891 22.143C36.9489 14.7685 38.3796 4.77293 46.6333 1.04776L48.9166 0L47.6735 2.15958C47.6621 2.18147 43.7775 8.8266 48.5536 14.1846C51.2995 17.2665 53.3794 18.8702 55.0795 20.1849C56.5817 21.3522 57.8032 22.2962 58.9588 23.8123C59.7013 24.7784 60.18 25.2642 60.5542 25.6466C61.4568 26.557 61.8147 26.922 63.1624 30.4897C64.1312 33.0593 65.2645 35.1327 66.1888 36.1687C66.3541 36.3556 66.5082 36.4971 66.6344 36.5891L66.6511 36.5189C66.8768 35.6244 67.3225 35.318 67.9993 35.4815C68.6155 35.6347 69.1326 36.4154 69.8704 37.5389C71.108 39.4154 73.0945 42.4331 76.1537 44.1227C79.8956 46.202 83.571 46.1744 86.0635 46.1582C87.3074 46.1527 88.2815 46.1475 88.9856 46.3929C89.9099 46.7204 90.0528 47.1074 90.2069 47.5167C90.312 47.7893 90.4272 48.0895 95.1156 48.5913C101.8 49.317 104.425 50.5443 109.439 53.965L105.956 53.4304C105.928 53.4247 96.2495 51.8972 87.5056 53.474C83.6263 54.1723 79.56 53.6869 75.5322 53.0048C74.1511 52.7758 72.8085 52.5742 71.4821 52.3937C68.665 52.0177 65.8041 51.5921 62.9646 51.7992C60.9949 51.9408 58.9531 52.274 55.6792 52.3665C53.5995 52.4213 51.4698 52.0882 49.1974 51.9408C44.5643 51.6357 42.0937 53.0103 37.9009 53.2231C35.8872 53.3267 34.1536 53.1251 32.4313 52.9286C30.0599 52.661 27.7103 52.3882 24.6565 52.9886C20.6945 53.763 20.0841 52.885 19.5062 52.0613C19.2035 51.6301 18.9232 51.2264 15.2639 52.2247C6.74603 54.5597 1.6067 50.0315 1.59015 50.0153L0 48.6404L2.1183 48.6187C2.12933 48.6187 5.76126 48.608 13.4534 46.4527C17.2062 45.4057 19.5281 45.2583 21.5474 45.1274C23.7045 44.9909 25.4982 44.8765 28.4145 43.6047ZM37.5872 43.218C37.5815 43.218 34.5886 42.6446 29.0695 45.0619C25.8892 46.4472 23.9686 46.5732 21.6576 46.7204C19.7153 46.8403 17.4756 46.9819 13.8939 47.9859C9.58519 49.1915 6.48747 49.748 4.55601 49.9991C6.56452 50.9699 10.0913 51.9958 14.829 50.6916C19.6001 49.388 20.1993 50.2443 20.8378 51.1552C21.1241 51.5645 21.4211 51.9901 24.3426 51.4228C27.6443 50.7733 30.1201 51.0571 32.6183 51.3412C35.6007 51.6846 38.6271 52.0282 43.1831 50.6591C44.3771 50.2991 45.5769 50.0046 46.7819 49.7587C45.9344 47.9315 47.0898 42.1163 50.177 43.5406C52.3886 44.5601 52.9393 43.1464 49.6706 41.6844C46.3967 40.2165 49.7476 40.539 54.1661 41.3735C58.5901 42.2039 56.5266 38.1883 52.24 35.4931C47.9537 32.8039 54.4796 29.5572 52.2127 26.2725C50.3473 23.5673 50.6226 19.9893 47.3103 17.4299C44.6633 15.3842 41.6976 15.6673 40.7237 11.5713C39.304 17.4299 44.6853 25.7721 50.9032 26.5732C50.3859 27.0152 49.2415 27.6589 47.6291 27.7084C47.9922 28.0075 49.4504 28.7444 49.4504 28.7444C47.8934 29.7542 46.6056 28.6525 46.2152 28.9414C45.995 29.1049 46.7049 32.0174 45.6813 33.5613C45.153 32.6507 44.0912 32.28 43.216 32.9395C41.1693 34.4834 38.5114 42.6505 38.5007 42.6781L38.286 43.3436L37.5872 43.218Z" fill="black"/>
<path fill-rule="evenodd" clip-rule="evenodd" d="M54.6179 69.1314H55.8997C66.1673 69.3437 61.7983 78.9346 70.0466 79.4532C64.7917 75.9394 67.4603 71.1446 64.5332 67.6256C63.0035 65.7819 60.687 64.9851 59.1736 64.9851C56.7855 64.9851 55.2614 66.3435 55.2614 66.3435C55.2614 66.3435 53.7317 64.9851 51.3436 64.9851C49.8195 64.9851 47.4809 65.7926 45.9513 67.6582C43.0678 71.177 45.7144 75.9506 40.471 79.4532C48.7191 78.9346 44.3501 69.3437 54.6179 69.1314ZM55.2614 74.8973C53.4182 74.8431 51.3492 75.1705 50.1165 75.7268C50.1165 75.7268 51.4317 73.4684 55.2614 73.4684C59.0856 73.4684 60.4009 75.7268 60.4009 75.7268C59.1684 75.1705 57.0992 74.8431 55.2614 74.8973ZM53.4126 79.9605C53.4126 79.9605 50.4192 84.1775 53.0496 89.9495C55.6851 95.7159 53.5283 102.257 53.5283 102.257C53.5283 102.257 54.8268 101.04 55.5309 98.3397C57.5505 90.5821 51.1951 87.6742 53.4126 79.9605ZM76.3468 53.2339C76.0883 53.7469 75.1747 55.9944 77.3483 58.8587C79.8245 62.121 79.9949 67.1398 77.3483 71.9188C74.696 76.6982 77.3042 83.7026 77.3042 83.7026C77.3042 83.7026 74.0961 79.8838 73.502 75.4214C72.9021 70.9643 73.6728 69.6059 73.6728 69.6059C73.6728 69.6059 68.1153 75.978 73.6728 82.4315C79.2248 88.88 72.3024 94.4553 72.3024 94.4553C72.3024 94.4553 73.4141 94.4553 74.7841 93.3808C76.1486 92.3058 76.8913 90.642 76.8913 90.642C76.8913 90.642 80.1658 97.4069 76.2369 103.539C72.3079 109.67 73.9314 113.893 73.9314 113.893C73.9314 113.893 71.5378 112.933 71.1084 109.349C70.6849 105.765 72.9904 102.186 72.9904 102.186C72.9904 102.186 68.8029 105.077 69.21 110.178C69.6172 115.273 70.0852 116.839 67.3503 119.065C64.6159 121.296 65.81 124.64 65.81 124.64C65.81 124.64 62.1012 122.414 64.3131 118.607C66.5248 114.799 64.1316 112.518 63.7625 109.327C63.2621 104.99 66.7561 102.169 66.2885 96.3536C66.0959 93.9754 65.166 91.5476 64.0104 90.3094C61.2922 87.4018 62.3099 82.8627 62.3099 82.8627C62.3099 82.8627 59.6855 87.0085 62.3099 90.5547C63.8949 92.6932 64.7204 94.848 64.5606 97.4338C64.2579 102.262 60.1587 106.921 62.8053 112.262C65.1163 116.926 60.8852 121.902 60.8852 121.902C62.2441 116.561 59.7017 110.827 56.318 108.634C56.318 108.634 56.7803 109.054 57.4953 110.609C63.2895 123.189 56.0374 122.998 55.4265 131.896C55.2339 134.755 56.1251 136.457 56.1251 136.457C56.1251 136.457 50.3644 129.763 53.0548 123.647C53.9298 121.656 54.1058 119.43 53.5557 117.396C53.1927 116.053 52.5158 114.799 51.5088 113.74C52.1361 115.508 52.5542 117.085 52.6313 118.655C52.7856 121.853 51.3383 125.121 49.2364 127.51C49.2364 127.51 50.2596 122.333 48.6365 120.499C47.0131 118.672 45.8196 116.517 49.2364 111.978C50.2048 110.685 50.4745 108.803 50.2048 107.041C49.2693 100.92 44.7462 99.9546 47.3268 90.1947C40.7625 100.554 51.7506 104.406 46.8645 112.24C45.5441 114.362 44.0972 116.015 45.7313 118.432C48.2071 122.093 44.7076 124.64 44.7076 124.64C44.7076 124.64 45.9016 121.296 43.1673 119.065C40.4324 116.839 41.4611 115.246 41.6319 110.145C41.8022 105.05 37.5272 102.186 37.5272 102.186C37.5272 102.186 39.8382 105.765 39.4088 109.349C38.9798 112.933 36.5917 113.893 36.5917 113.893C36.5917 113.893 38.2148 109.67 34.2807 103.539C30.3518 97.4069 33.6257 90.642 33.6257 90.642C33.6257 90.642 34.3688 92.3058 35.7333 93.3808C37.1033 94.4553 38.2148 94.4553 38.2148 94.4553C38.2148 94.4553 31.2928 88.88 36.8448 82.4315C42.4021 75.978 36.8448 69.6059 36.8448 69.6059C36.8448 69.6059 37.6149 70.9643 37.0156 75.4214C36.4212 79.8838 33.2134 83.7026 33.2134 83.7026C33.2134 83.7026 35.8216 76.6982 33.1749 71.9188C30.5226 67.1398 30.6929 62.121 33.1749 58.8587C35.3423 55.9944 34.4291 53.7469 34.1706 53.2339C35.7829 54.4781 36.9603 56.4311 35.4747 59.3551C32.3987 65.405 38.3799 67.5982 38.3799 67.5982C38.3799 67.5982 34.7923 63.654 37.5217 60.5881C40.2564 57.5221 38.3799 55.0945 38.3799 55.0945C38.3799 55.0945 41.7583 57.2493 40.8561 59.5132C39.827 62.0991 42.6277 65.7326 44.8729 66.1745C44.8729 66.1745 46.4082 63.9049 49.9959 63.5666C53.5831 63.2284 55.2614 66.3435 55.2614 66.3435C55.2614 66.3435 56.9341 63.2284 60.5217 63.5666C64.1093 63.9049 65.6446 66.1745 65.6446 66.1745C67.8896 65.7326 70.6904 62.0991 69.6613 59.5132C68.7588 57.2493 72.1375 55.0945 72.1375 55.0945C72.1375 55.0945 70.261 57.5221 72.9959 60.5881C75.7308 63.654 72.1375 67.5982 72.1375 67.5982C72.1375 67.5982 78.1183 65.405 75.0428 59.3551C73.5626 56.4311 74.7346 54.4781 76.3468 53.2339Z" fill="black"/>
</svg>
